<?xml version="1.0" encoding="UTF-8" standalone="no"?>
<!DOCTYPE svg PUBLIC "-//W3C//DTD SVG 1.1//EN" "http://www.w3.org/Graphics/SVG/1.1/DTD/svg11.dtd">
<svg width="93cm" height="29cm" viewBox="-60 59 1845 562" xmlns="http://www.w3.org/2000/svg" xmlns:xlink="http://www.w3.org/1999/xlink">
  <defs/>
  <g id="Background"/>
  <g id="Background">
    <image x="-60" y="140" width="297.172" height="231.2" xlink:href="b12f53033aa3a1045bd15c01ffd020e6.img.png"/>
    <image x="20" y="300" width="253.597" height="141" xlink:href="2ac6ee1db52720383c3c332e44a4ab6b.img.png"/>
    <image x="120" y="400" width="215.171" height="163.1" xlink:href="16b7be3c912822bfd8bf2cf247b4fb60.img.png"/>
    <g transform="matrix(0.8,0,0,0.8,40,48)">
      <polygon style="fill: #ffffff; fill-opacity: 1; stroke-opacity: 1; stroke-width: 2; stroke: #000000" fill-rule="evenodd" points="300,140 445,141 440,340 340,340 300,300 "/>
      <polygon style="fill: #ffffff; fill-opacity: 1; stroke-opacity: 1; stroke-width: 2; stroke: #000000" fill-rule="evenodd" points="340,340 300,300 340,300 "/>
      <text font-size="22.5778" style="fill: #000000; fill-opacity: 1; stroke: none;text-anchor:middle;font-family:sans-serif;font-style:normal;font-weight:normal" x="372.5" y="240">
        <tspan x="372.5" y="240">PageXML</tspan>
      </text>
    </g>
    <g transform="matrix(0.8,0,0,0.8,100,148)">
      <polygon style="fill: #ffffff; fill-opacity: 1; stroke-opacity: 1; stroke-width: 2; stroke: #000000" fill-rule="evenodd" points="300,140 445,141 440,340 340,340 300,300 "/>
      <polygon style="fill: #ffffff; fill-opacity: 1; stroke-opacity: 1; stroke-width: 2; stroke: #000000" fill-rule="evenodd" points="340,340 300,300 340,300 "/>
      <text font-size="22.5778" style="fill: #000000; fill-opacity: 1; stroke: none;text-anchor:middle;font-family:sans-serif;font-style:normal;font-weight:normal" x="372.5" y="240">
        <tspan x="372.5" y="240">PageXML</tspan>
      </text>
    </g>
    <g transform="matrix(0.8,0,0,0.8,160,288)">
      <polygon style="fill: #ffffff; fill-opacity: 1; stroke-opacity: 1; stroke-width: 2; stroke: #000000" fill-rule="evenodd" points="300,140 445,141 440,340 340,340 300,300 "/>
      <polygon style="fill: #ffffff; fill-opacity: 1; stroke-opacity: 1; stroke-width: 2; stroke: #000000" fill-rule="evenodd" points="340,340 300,300 340,300 "/>
      <text font-size="22.5778" style="fill: #000000; fill-opacity: 1; stroke: none;text-anchor:middle;font-family:sans-serif;font-style:normal;font-weight:normal" x="372.5" y="240">
        <tspan x="372.5" y="240">PageXML</tspan>
      </text>
    </g>
    <text font-size="28.2222" style="fill: #000000; fill-opacity: 1; stroke: none;text-anchor:middle;font-family:sans-serif;font-style:normal;font-weight:normal" x="260" y="240">
      <tspan x="260" y="240">+</tspan>
    </text>
    <text font-size="28.2222" style="fill: #000000; fill-opacity: 1; stroke: none;text-anchor:middle;font-family:sans-serif;font-style:normal;font-weight:normal" x="320" y="360">
      <tspan x="320" y="360">+</tspan>
    </text>
    <text font-size="28.2222" style="fill: #000000; fill-opacity: 1; stroke: none;text-anchor:middle;font-family:sans-serif;font-style:normal;font-weight:normal" x="380" y="480">
      <tspan x="380" y="480">+</tspan>
    </text>
    <line style="fill: none; stroke-opacity: 1; stroke-width: 2; stroke: #000000" x1="540" y1="340" x2="620" y2="340"/>
    <rect style="fill: none; stroke-opacity: 1; stroke-width: 2; stroke-linejoin: round; stroke: #000000" x="620" y="160" width="600" height="360" rx="30" ry="30"/>
    <text font-size="25.4" style="fill: #000000; fill-opacity: 1; stroke: none;text-anchor:middle;font-family:sans-serif;font-style:normal;font-weight:normal" x="840" y="489.875">
      <tspan x="840" y="489.875">PageDataset</tspan>
    </text>
    <image x="700" y="300" width="154" height="47.3103" xlink:href="2ac6ee1db52720383c3c332e44a4ab6b-r0.png"/>
    <image x="760" y="360" width="131.133" height="63" xlink:href="16b7be3c912822bfd8bf2cf247b4fb60-r0.png"/>
    <image x="640" y="200" width="185" height="72.0779" xlink:href="b12f53033aa3a1045bd15c01ffd020e6-r0.png"/>
    <text font-size="28.2222" style="fill: #000000; fill-opacity: 1; stroke: none;text-anchor:middle;font-family:sans-serif;font-style:normal;font-weight:normal" x="840" y="240">
      <tspan x="840" y="240">+</tspan>
    </text>
    <text font-size="28.2222" style="fill: #000000; fill-opacity: 1; stroke: none;text-anchor:middle;font-family:sans-serif;font-style:normal;font-weight:normal" x="880" y="340">
      <tspan x="880" y="340">+</tspan>
    </text>
    <text font-size="28.2222" style="fill: #000000; fill-opacity: 1; stroke: none;text-anchor:middle;font-family:sans-serif;font-style:normal;font-weight:normal" x="920" y="400">
      <tspan x="920" y="400">+</tspan>
    </text>
    <g transform="matrix(0.5,0,0,0.5,458.5,-18)">
      <polygon style="fill: #ffffff; fill-opacity: 1; stroke-opacity: 1; stroke-width: 2; stroke: #000000" fill-rule="evenodd" points="803,436 948,437 943,636 843,636 803,596 "/>
      <polygon style="fill: #ffffff; fill-opacity: 1; stroke-opacity: 1; stroke-width: 2; stroke: #000000" fill-rule="evenodd" points="843,636 803,596 843,596 "/>
      <text font-size="31.0444" style="fill: #000000; fill-opacity: 1; stroke: none;text-anchor:middle;font-family:sans-serif;font-style:normal;font-weight:normal" x="875.5" y="536">
        <tspan x="875.5" y="536">JSON</tspan>
      </text>
    </g>
    <g transform="matrix(0.5,0,0,0.5,498.5,42)">
      <polygon style="fill: #ffffff; fill-opacity: 1; stroke-opacity: 1; stroke-width: 2; stroke: #000000" fill-rule="evenodd" points="803,436 948,437 943,636 843,636 803,596 "/>
      <polygon style="fill: #ffffff; fill-opacity: 1; stroke-opacity: 1; stroke-width: 2; stroke: #000000" fill-rule="evenodd" points="843,636 803,596 843,596 "/>
      <text font-size="31.0444" style="fill: #000000; fill-opacity: 1; stroke: none;text-anchor:middle;font-family:sans-serif;font-style:normal;font-weight:normal" x="875.5" y="536">
        <tspan x="875.5" y="536">JSON</tspan>
      </text>
    </g>
    <g transform="matrix(0.5,0,0,0.5,538.5,122)">
      <polygon style="fill: #ffffff; fill-opacity: 1; stroke-opacity: 1; stroke-width: 2; stroke: #000000" fill-rule="evenodd" points="803,436 948,437 943,636 843,636 803,596 "/>
      <polygon style="fill: #ffffff; fill-opacity: 1; stroke-opacity: 1; stroke-width: 2; stroke: #000000" fill-rule="evenodd" points="843,636 803,596 843,596 "/>
      <text font-size="31.0444" style="fill: #000000; fill-opacity: 1; stroke: none;text-anchor:middle;font-family:sans-serif;font-style:normal;font-weight:normal" x="875.5" y="536">
        <tspan x="875.5" y="536">JSON</tspan>
      </text>
    </g>
    <g>
      <polyline style="fill: none; stroke-opacity: 1; stroke-width: 2; stroke: #000000" points="420,220 560,220 560,340 610.264,340 "/>
      <polygon style="fill: #000000; fill-opacity: 1; stroke-opacity: 1; stroke-width: 2; stroke: #000000" fill-rule="evenodd" points="617.764,340 607.764,345 610.264,340 607.764,335 "/>
    </g>
    <g>
      <polyline style="fill: none; stroke-opacity: 1; stroke-width: 2; stroke: #000000" points="540,480 560,480 560,340 610.264,340 "/>
      <polygon style="fill: #000000; fill-opacity: 1; stroke-opacity: 1; stroke-width: 2; stroke: #000000" fill-rule="evenodd" points="617.764,340 607.764,345 610.264,340 607.764,335 "/>
    </g>
    <g>
      <line style="fill: none; stroke-opacity: 1; stroke-width: 2; stroke: #000000" x1="480" y1="340" x2="610.264" y2="340"/>
      <polygon style="fill: #000000; fill-opacity: 1; stroke-opacity: 1; stroke-width: 2; stroke: #000000" fill-rule="evenodd" points="617.764,340 607.764,345 610.264,340 607.764,335 "/>
    </g>
    <text font-size="31.0444" style="fill: #000000; fill-opacity: 1; stroke: none;text-anchor:middle;font-family:sans-serif;font-style:normal;font-weight:normal" x="1568.72" y="533.832">
      <tspan x="1568.72" y="533.832">...</tspan>
    </text>
    <g>
      <image x="1280" y="80" width="324.169" height="18.0684" xlink:href="2ac6ee1db52720383c3c332e44a4ab6b-l0.png"/>
      <g transform="matrix(0.983025,0,0,1,77.15,-94.2952)">
        <rect style="fill: #000000; fill-opacity: 1; stroke-opacity: 1; stroke-width: 2; stroke: #000000" x="1222.81" y="216.818" width="327.948" height="20" rx="0" ry="0"/>
        <polygon style="fill: #000000; fill-opacity: 1; stroke-opacity: 1; stroke-width: 2; stroke: #000000" fill-rule="evenodd" points="1384.58,226.457 1373.91,229.777 1377.18,225.246 1375.52,219.909 "/>
        <polyline style="fill: none; stroke-opacity: 1; stroke-width: 8; stroke: #ffffff" points="1224.5,224.498 1333.81,224.498 1443.97,225.34 1549.92,230.386 "/>
      </g>
      <text font-size="22.5778" style="fill: #000000; fill-opacity: 1; stroke: none;text-anchor:middle;font-family:sans-serif;font-style:normal;font-weight:normal" x="1440.4" y="117.434">
        <tspan x="1440.4" y="117.434">+</tspan>
      </text>
      <text font-size="22.5778" style="fill: #000000; fill-opacity: 1; stroke: none;text-anchor:middle;font-family:sans-serif;font-style:normal;font-weight:normal" x="1440.84" y="160.659">
        <tspan x="1440.84" y="160.659">+</tspan>
      </text>
      <g transform="matrix(1,0,0,0.812936,62.5226,-44.1638)">
        <text font-size="16.9333" style="fill: #000000; fill-opacity: 1; stroke: none;text-anchor:middle;font-family:sans-serif;font-style:normal;font-weight:normal" x="1440" y="286.575">
          <tspan x="1440" y="286.575">*.gt.txt</tspan>
        </text>
      </g>
      <g transform="matrix(1,0,0,0.812936,62.5226,-44.1638)">
        <polygon style="fill: none; stroke-opacity: 1; stroke-width: 2; stroke: #000000" points="1220,260 1540,260 1540,300 1240,300 1220,280 "/>
      </g>
      <g transform="matrix(1,0,0,0.812936,62.5226,-44.1638)">
        <polygon style="fill: #ffffff; fill-opacity: 1; stroke-opacity: 1; stroke-width: 2; stroke: #000000" fill-rule="evenodd" points="1240,300 1220,280 1240,280 "/>
      </g>
    </g>
    <g>
      <image x="1339.52" y="234.344" width="322.717" height="16.6028" xlink:href="2ac6ee1db52720383c3c332e44a4ab6b-l1.png"/>
      <g transform="matrix(0.975463,0,0,1,148.766,-20.5442)">
        <rect style="fill: #000000; fill-opacity: 1; stroke-opacity: 1; stroke-width: 2; stroke: #000000" x="1221.6" y="296.05" width="327.948" height="20" rx="0" ry="0"/>
        <polygon style="fill: #000000; fill-opacity: 1; stroke-opacity: 1; stroke-width: 2; stroke: #000000" fill-rule="evenodd" points="1383.39,305.568 1372.55,308.293 1376.07,303.95 1374.71,298.529 "/>
        <polyline style="fill: none; stroke-opacity: 1; stroke-width: 8; stroke: #ffffff" points="1223.28,303.73 1332.6,303.73 1442.76,304.572 1548.71,309.618 "/>
      </g>
      <text font-size="22.5778" style="fill: #000000; fill-opacity: 1; stroke: none;text-anchor:middle;font-family:sans-serif;font-style:normal;font-weight:normal" x="1500.82" y="272.588">
        <tspan x="1500.82" y="272.588">+</tspan>
      </text>
      <g transform="matrix(1,0,0,0.812936,118.878,107.088)">
        <text font-size="16.9333" style="fill: #000000; fill-opacity: 1; stroke: none;text-anchor:middle;font-family:sans-serif;font-style:normal;font-weight:normal" x="1440" y="286.575">
          <tspan x="1440" y="286.575">*.gt.txt</tspan>
        </text>
      </g>
      <g transform="matrix(1,0,0,0.812936,118.878,107.088)">
        <polygon style="fill: none; stroke-opacity: 1; stroke-width: 2; stroke: #000000" points="1220,260 1540,260 1540,300 1240,300 1220,280 "/>
      </g>
      <g transform="matrix(1,0,0,0.812936,118.878,107.088)">
        <polygon style="fill: #ffffff; fill-opacity: 1; stroke-opacity: 1; stroke-width: 2; stroke: #000000" fill-rule="evenodd" points="1240,300 1220,280 1240,280 "/>
      </g>
      <text font-size="22.5778" style="fill: #000000; fill-opacity: 1; stroke: none;text-anchor:middle;font-family:sans-serif;font-style:normal;font-weight:normal" x="1501" y="315.72">
        <tspan x="1501" y="315.72">+</tspan>
      </text>
    </g>
    <g>
      <image x="1406.79" y="385.342" width="322.717" height="18.2873" xlink:href="2ac6ee1db52720383c3c332e44a4ab6b-l2.png"/>
      <g transform="matrix(0.980504,0,0,1,209.891,131.657)">
        <rect style="fill: #000000; fill-opacity: 1; stroke-opacity: 1; stroke-width: 2; stroke: #000000" x="1221.6" y="296.05" width="327.948" height="20" rx="0" ry="0"/>
        <polygon style="fill: #000000; fill-opacity: 1; stroke-opacity: 1; stroke-width: 2; stroke: #000000" fill-rule="evenodd" points="1383.39,305.568 1372.55,308.293 1376.07,303.95 1374.71,298.529 "/>
        <polyline style="fill: none; stroke-opacity: 1; stroke-width: 8; stroke: #ffffff" points="1223.28,303.73 1332.6,303.73 1442.76,304.572 1548.71,309.618 "/>
      </g>
      <text font-size="22.5778" style="fill: #000000; fill-opacity: 1; stroke: none;text-anchor:middle;font-family:sans-serif;font-style:normal;font-weight:normal" x="1568.09" y="423.948">
        <tspan x="1568.09" y="423.948">+</tspan>
      </text>
      <g transform="matrix(1,0,0,0.812936,187.831,260.972)">
        <text font-size="16.9333" style="fill: #000000; fill-opacity: 1; stroke: none;text-anchor:middle;font-family:sans-serif;font-style:normal;font-weight:normal" x="1440" y="286.575">
          <tspan x="1440" y="286.575">*.gt.txt</tspan>
        </text>
      </g>
      <g transform="matrix(1,0,0,0.812936,187.831,260.972)">
        <polygon style="fill: none; stroke-opacity: 1; stroke-width: 2; stroke: #000000" points="1220,260 1540,260 1540,300 1240,300 1220,280 "/>
      </g>
      <g transform="matrix(1,0,0,0.812936,187.831,260.972)">
        <polygon style="fill: #ffffff; fill-opacity: 1; stroke-opacity: 1; stroke-width: 2; stroke: #000000" fill-rule="evenodd" points="1240,300 1220,280 1240,280 "/>
      </g>
      <text font-size="22.5778" style="fill: #000000; fill-opacity: 1; stroke: none;text-anchor:middle;font-family:sans-serif;font-style:normal;font-weight:normal" x="1568.27" y="467.082">
        <tspan x="1568.27" y="467.082">+</tspan>
      </text>
    </g>
    <rect style="fill: none; stroke-opacity: 1; stroke-width: 2; stroke-linejoin: round; stroke: #000000" x="1260" y="60" width="523.753" height="560" rx="30" ry="30"/>
    <text font-size="25.4" style="fill: #000000; fill-opacity: 1; stroke: none;text-anchor:middle;font-family:sans-serif;font-style:normal;font-weight:normal" x="1520" y="589.875">
      <tspan x="1520" y="589.875">HTRLineDataset</tspan>
    </text>
    <rect style="fill: #f6d32d; fill-opacity: 1; stroke-opacity: 1; stroke-width: 2; stroke-dasharray: 4; stroke: #000000" x="1040" y="280" width="160" height="80" rx="0" ry="0"/>
    <text font-size="16.9333" style="fill: #000000; fill-opacity: 1; stroke: none;text-anchor:middle;font-family:sans-serif;font-style:normal;font-weight:normal" x="1120" y="320">
      <tspan x="1120" y="320">Augmentation</tspan>
    </text>
    <g>
      <line style="fill: none; stroke-opacity: 1; stroke-width: 2; stroke: #000000" x1="1200" y1="320" x2="1250.26" y2="320"/>
      <polygon style="fill: #000000; fill-opacity: 1; stroke-opacity: 1; stroke-width: 2; stroke: #000000" fill-rule="evenodd" points="1257.76,320 1247.76,325 1250.26,320 1247.76,315 "/>
    </g>
    <g>
      <polyline style="fill: none; stroke-opacity: 1; stroke-width: 2; stroke: #000000" points="940,220 1120,220 1120,270.264 "/>
      <polygon style="fill: #000000; fill-opacity: 1; stroke-opacity: 1; stroke-width: 2; stroke: #000000" fill-rule="evenodd" points="1120,277.764 1115,267.764 1120,270.264 1125,267.764 "/>
    </g>
    <g>
      <line style="fill: none; stroke-opacity: 1; stroke-width: 2; stroke: #000000" x1="980" y1="320" x2="1030.26" y2="320"/>
      <polygon style="fill: #000000; fill-opacity: 1; stroke-opacity: 1; stroke-width: 2; stroke: #000000" fill-rule="evenodd" points="1037.76,320 1027.76,325 1030.26,320 1027.76,315 "/>
    </g>
    <g>
      <polyline style="fill: none; stroke-opacity: 1; stroke-width: 2; stroke: #000000" points="1020,420 1120,420 1120,369.736 "/>
      <polygon style="fill: #000000; fill-opacity: 1; stroke-opacity: 1; stroke-width: 2; stroke: #000000" fill-rule="evenodd" points="1120,362.236 1125,372.236 1120,369.736 1115,372.236 "/>
    </g>
  </g>
</svg>
